<svg xmlns="http://www.w3.org/2000/svg" xmlns:xlink="http://www.w3.org/1999/xlink" viewBox="0 0 249.6 174.72">
  <g class="g_to_interact_with" id="uppersål" style="isolation: isolate">
    <path d="M116.64,125.76v.72c4.48,3,9.1,5.36,13.92,8.16,1.33.77,2.63,2.15,4.08,2.88,3.39,1.7,7.77,2.57,11.28,3.84,4.35,1.57,10.48,2,14.88,3.12,1.73.44,4,.17,5.28.48h3.36a12.66,12.66,0,0,1,3.36.48h6.72c1.64.41,5.09.55,6.72,1h3.84a69,69,0,0,0,15.12,1.44h7a5.33,5.33,0,0,0,2.88.48,38.05,38.05,0,0,1,9.12-1v.48c-2.06,1.3-3.76,3.37-6.24,4.32-1.33.51-2.5.24-3.84.72s-3.11,1.39-4.32,1.92c-1.57.69-3,.23-4.8.72-3.27.87-7.54,1.93-11,2.88-2.52.69-4.5.28-7.2,1a78.5,78.5,0,0,1-18.72,2.4c-5.42,0-13.37,1.35-18.72,0h-3.36c-1.53-.54-3.13-2.3-4.8-2.88l-2.4-.24c-6.09-2.64-11.54-5.45-16.08-9.6-2.06-1.89-3.66-4.39-5.76-6.24-.79-.7-2.07-.76-2.88-1.44a25.23,25.23,0,0,0-9.84-5.52C100,134.75,97.23,137,95,138l-1.92.24c-2.64,1-4.87,2.37-8.64,2.4-1.88-3.26-3.3-9.82-8.16-9.84a41.31,41.31,0,0,1-9.12.24c-.81-.28-1.56-1.36-2.4-1.68-1.5-.58-2.94-.27-4.32-1-3.56-1.78-10.57-10.81-12.24-14.64l-1-5.76c-1.52-4.3-3.36-7.71-7-9.84-1.77-1-4.19-.31-6.72-.72s-3.92.84-6.24,1.68a31.56,31.56,0,0,1-11,1.92c-1.88-2.77-4.57-5.11-6-8.4-3.51-8.07-.2-17.83,2.4-24.48C14,65,14.42,60.59,18.24,60c.15.42.05.23.24.48-.51,2.13-1.16,5.06-1.68,7.2-.82,3.37,1.32,4.69,2.64,6,2.76,2.73,4,2,7.92,3.36.69.25,1.71,1,2.4,1.2H31.2c1.32.48,2.77,2,4.08,2.64.89.45,1.71.36,2.4,1,.39.35.57,1.09,1,1.44,1.54,1.36,4.17,2.25,6,3.36s3.58,3.22,5.52,4.32c4.26,2.41,7.86,5.31,11.76,7.92,2.72,1.82,5.46,3.19,8.16,5,1.57,1.07,3,2.73,4.56,3.84,2.09,1.5,4.37,2.61,6.24,4.32s3.41,4.09,5.76,5.28c4.54,2.3,13.13-.29,18,1.44a53.36,53.36,0,0,1,7,3.36C113.22,123.59,113.78,125.49,116.64,125.76Z" fill-rule="evenodd"/>
  </g>
  <g class="g_to_interact_with" id="middlesål" style="isolation: isolate">
    <path d="M99.36,136.32c3,0,6.52-.32,8.64.72a30.76,30.76,0,0,1,6,4.32c.8.68,2.09.74,2.88,1.44,1.08.95,1.86,2.34,2.88,3.36.86.86,2.08,1.49,2.88,2.4s.75,2.09,1.44,2.88a23.49,23.49,0,0,0,6.72,4.8,49,49,0,0,0,9.84,4.08c1.53.39,6.61.57,7.2,1.44H141.6c-3-2-11.12-.26-14.88-1.68-1.75-.66-3.59-2.2-5.28-2.88a85.06,85.06,0,0,1-11-5.28c-1.68-1-3.33-2.65-5.28-3.36-1-.35-4.57-1.06-5.76-.72-1.39.39-3.71,1.61-6.24,1-3.68-1-5.68-3.7-8.4-5.52.15-.62.11-.46,0-1.2.5-.31.76-.92,1.2-1.2,1.49-.94,3.39-.65,5-1.44.27-.13.93-.84,1.2-1C94.56,137.43,97.41,137.77,99.36,136.32Z" fill-rule="evenodd"/>
    <path d="M7.2,82.32H8.64l.24.72c.74,1.25-.19,3.66.24,5.28.19.73.77,1.67,1,2.4l.24,2.64c.67,1.34,5.07,7.09,6.24,7.68,2.7,1.35,5.91-.61,7.44-1.2,1.33-.51,2.5-.24,3.84-.72,2-.73,3.86-2,5.76-1.68,3,.55,5.6-.34,7.44,1.2a17.68,17.68,0,0,1,5.28,7c.89,2.07.41,4.28,1.2,6.24,1.93,4.79,8.48,14.82,12.72,17,3.79,2,9.21.51,14.16,1.44V131h-.24v.24c-1.4.24-2.79.89-4.08,1.2-4.47,1.08-8.51-1.14-11.52-1.92l-2.88-.24c-2.54-1-4.76-3.07-7-4.32-2.88-1.63-5.71-3-8.4-4.8-4.24-2.9-8.19-6.73-13.44-8.64-2.49-.91-5.16,0-8.16-.72-3.74-.92-8.6-.43-11.52-2.16-.67-.4-1.13-1.37-1.68-1.92s-1.53-1-1.92-1.68c-2.45-4.19-1.1-15.61.48-19.68C4.76,84.66,6.16,83.64,7.2,82.32Z" fill-rule="evenodd"/>
  </g>
  <g class="g_to_interact_with" id="nedresål" style="isolation: isolate">
    <path d="M85.2,142.56c.39.32.27.15.48.72h-.24V143C85.25,142.79,85.35,143,85.2,142.56Z" fill-rule="evenodd"/>
    <path d="M243.84,127.2a12.08,12.08,0,0,1,3.84.24c.71.68.1,1.27.48,2.4.07.19.66.58.72.72,1,2.33-.17,5.77-.72,7.2l-.24,1.92c-.84,1.64-4.62,4.36-6.24,5.52-4.35,3.11-8.9,6.7-14.16,8.88l-3.12.48c-2,.59-3.11,2.12-4.8,2.64-.74.23-1.46-.41-2.64,0-6.35,2.2-13.74,4.22-20.16,6-6.8,1.88-14.4,1.63-21.12,3.36-2.89.75-6.45.27-9.12,1h-4.08c-4.69,0-9.16,0-12.72-1H145a26.16,26.16,0,0,1-6.72-1h-2.88c-1.88-.53-3.73-1.64-5.76-2.16-1.67-.43-3.3-.39-4.56-.72h-3.12c-1.79-.57-4.37-1.53-6.24-2.16s-3.69-.66-5.52-1.44c-.87-.37-1.81-1.34-2.64-1.68-1.81-.73-3.85-.37-5.52-1.2-4.53-2.25-15.54-7.64-16.32-13h.48c1.22,2.7,4.87,5.15,7.92,6,2.25.63,3.83-1.07,5.28-1.44,3.06-.79,6.46.7,8.16,1.68,6.51,3.75,13.24,8.39,21.12,10.8,2.87.88,6,.21,9.12,1,2.83.69,9.37,2.33,13,1.44a11.56,11.56,0,0,1,3.12-.48c4,0,9,.31,12.24-.48,2.42-.59,4.15,1.14,6.24.48.93-.29,2.21-1.15,3.36-1.44h2.88c1.06-.26,3.26-.7,4.32-1,2.26-.56,3.92.1,6.24-.48,4.58-1.15,10.32-1.86,14.4-3.6l3.84-.48c4.45-1.57,9.66-2.47,13.44-4.8,2.79-1.72,6.34-4.33,7.92-7.2,1.84-3.36,2.35-7.4,4.8-10.08C236.19,130.28,241.23,129.69,243.84,127.2Z" fill-rule="evenodd"/>
    <path d="M1.44,98.4c.69.27.44,0,.72.72,1.61,2.09,1.78,5.44,2.4,8.16a30.93,30.93,0,0,0,8.4,4.08h4.8c3.27.83,7.72.39,10.56,1.68,4.73,2.14,8.4,5.66,12.48,8.4s8.47,4.86,13,7.44c2.18,1.25,4.88,3,7.68,3.6l2.4-.48a28.77,28.77,0,0,0,11-.72v.24c-.19.25-.09.07-.24.48a23.9,23.9,0,0,1-3.36,2.16c-1.54.61-3.68-.15-5.52.24a19.08,19.08,0,0,1-3.6.72c-1-.12-2.76-.85-4.08-1-1.19.68-10.17-.68-11.52-1.2-.38-.15-.89-.8-1.2-1-1.65-.83-3.74-.37-5.52-1.2-.54-.25-1.15-1.16-1.68-1.44-2.37-1.25-4.91-1.27-7.44-2.4-3.78-1.69-8.15-3.46-11.76-5.28-4.94-2.49-10.91-4-13.92-8.4C2.29,109.27,1.39,105.51,1.44,98.4Z" fill-rule="evenodd"/>
  </g>
  <g class="g_to_interact_with" id="frontshield" style="isolation: isolate">
    <path d="M239,108.72c6.74,2.26,8.69,9.48,8.64,18.48-.82.11-2.55-.43-3.84,0-.83.28-1.62,1.32-2.4,1.68-3.61,1.65-7.06,2.89-9.12,6-2.32,3.5-3.27,11.13-7.68,12.24-1.1.69-3.32-.11-4.8.24s-4.8,1.42-6.72,1a14.52,14.52,0,0,0-3.6-.48c-3.15,0-6.94.11-9.36-.48h-3.84c-5.12-1.27-11.64-.66-16.8-1.92-2.43-.59-5.78,0-7.68-.48-3.6-.88-7.51.41-11-.48-9-2.26-18.6-3.39-26.4-7a46.22,46.22,0,0,1-6.48-4.32c-.85-.6-1.6-.43-2.64-1-1.58-.8-8-5.2-8.4-6.72-.35-.57-.11-.9,0-1.68,2.39-.53,3.67-2.2,5.52-3.12a22.89,22.89,0,0,1,4.32-1.2c4.81-1.19,8.61,1.4,11.52,2.4,6.27,2.15,11.26,3.85,19,4.8.73.09,1.58-1.24,2.16-1.44h2.4c.82-.27,1.49-1.23,2.16-1.68,1.68-1.12,6.68-3.87,9.84-3.12,2,.48,5.58-.13,8.16.48,3.59.85,9.07.48,13.44.48,12.12,0,22.79-1.87,31.2-5.52l2.64-.48c.55-.28,1.14-1.14,1.68-1.44s1.2,0,1.92-.24A34.3,34.3,0,0,0,239,108.72Z" fill-rule="evenodd"/>
  </g>
  <g class="g_to_interact_with" id="frontprik" style="isolation: isolate">
    <path d="M80.16,47.52c1.78-.05,4.38-.33,5.76.24s2.32,1.86,3.84,2.4c1.78.64,3.87,0,4.56,1.68,1.18,1.95-1.15,5.1,0,7.44,1.05,2.12,3.65,3.65,5.28,5.28,1.18,1.18,2.11,2.73,3.36,3.84.7.63,1.71.81,2.4,1.44,1.07,1,1.85,2.33,2.88,3.36,1.6,1.6,3.47,2.94,5,4.56,4.63,0,8.47-.51,12.48-.24,1.62,2.32,7,5.46,9.6,7.2,1.94,1.33,3.8,3.24,5.76,4.56,1.28.86,2.56,1.29,3.84,2.16.71.49,1.38,1.49,2.16,1.92s1.75.42,2.64,1l2.16,2.4c3.35,2,12.88,4.23,18,2.4a53.26,53.26,0,0,0,11-5c4.61-3,9.86-7.22,17-7.44,1.66,2.39,4.84,3.3,7.44,4.8.51.29,1.14,1.14,1.68,1.44,5.31,2.88,10.74,5.11,16.32,7.68l2.64.48c2.47.89,7.46,2.53,9.36,4.08-.51.78-.37,2-1,2.64-2.29,2.61-6.65,3.84-9.84,5.52a12.12,12.12,0,0,1-2.4,1.44h-3.36c-4.84,1.22-12.21,1-18.48,1h-9.6a16.58,16.58,0,0,0-6.24-.48c-2.37.39-9.21-.06-12.72-1H168l-3.84-1h-4.32c-5.68-1.46-11.75-2.27-16.8-4.56a33.26,33.26,0,0,1-7.92-5.28c-1.75-1.54-4.06-2.28-5.76-3.84s-3.05-3.72-4.8-5.28c-4-3.56-8.71-6-13.2-9.12A81.07,81.07,0,0,1,103.92,79c-.88-.78-2-.82-3.12-1.44-.9-.52-2-1.59-2.88-2.16S96,75.14,95,74.64c-2.8-1.4-6.05-3.43-8.88-4.8l-2.64-.48c-6.41-2.85-13.23-6.35-19.44-9.6-2.45-1.28-6.6-2-8.64-3.6-.19-.25-.09-.07-.24-.48,3.42,0,6.21-1.6,8.64-2.64l2.88-.24A47,47,0,0,0,71,50.64L73,50.4C74.18,50,79.25,48.21,80.16,47.52Z" fill-rule="evenodd"/>
  </g>
  <g class="g_to_interact_with" id="upperfartstribe" style="isolation: isolate">
    <path d="M52.32,55.2c4.67,0,7.2,3.34,10.32,5,5.5,3,11.81,5.3,17.28,8.16,1.8.94,3.59,1,5.52,1.92,2.37,1.07,5.1,2.67,7.44,3.84l2.16.48a89,89,0,0,1,7.68,5c1.21.8,2.55.93,3.84,1.68,1.74,1,3.29,2.87,5,3.84,1.13.63,2.1.74,3.12,1.44.46.32.77,1.08,1.2,1.44,1.67,1.43,3.66,2.36,5.28,3.84,1.06,1,1.8,2.4,2.88,3.36,2.09,1.87,4.68,3.15,7,4.8,1.81,1.31,3.36,3.32,5,4.8.88.78,2,.82,3.12,1.44.51.29,1.14,1.15,1.68,1.44,2.86,1.55,6.84,2.75,9.84,3.84l3.36.24c6.1,1.53,14.46,1.33,20.64,2.88,1.87.47,4.39.14,5.76.48h9.12c4.13,1,10.42.48,15.36.48h6.72a5.52,5.52,0,0,1,2.88-.48,5.62,5.62,0,0,0,2.4.24c.49-.14,1.09-.8,1.44-1l3.36-.48c.38-.14,1.12-.82,1.44-1,1.86-.81,3.54-.73,5.28-1.44.85-.35,1.59-1.34,2.4-1.68l1.44-.24c1.57-1,2.22-3.62,3.84-4.32.28-.19.4-.19,1-.24.77,1.14,1.75,1.54,1.92,3.36-2.4,2.27-5.9,6-9.12,7.2-1.7.66-2.8.37-4.8,1-1,.31-2.43,1.28-3.36,1.68l-3.84.48c-2.84.76-6.84,1.49-9.6,2.16h-5.76c-2.29.56-5.48.62-8.16,1.2l-5.28-.24h-12c-1.45-.36-5.07-1.09-7.2-.48-1.25.36-2.69,1.48-3.84,1.92s-1.72.23-2.64.72c-1.45.77-2.75,2.17-4.56,2.64-2.48.65-6.2-.19-7.68-.72s-2.89-.32-4.32-1c-3.38-1.5-7.55-3-11-4.32-2.36-.9-5.75-.72-8.16-1.68-3.69-6.6-6-15.93-10.8-21.36a63,63,0,0,0-10.56-9.36c-.91-.66-1.52-2-2.4-2.64-.52-.39-1.11-.14-1.68-.48s-1.39-1.5-2.16-1.92c-1.5-.83-3.13-1-4.56-1.92-5.14-3.33-11.31-6.18-16.8-9.12-1.29-.69-2.56-.77-3.84-1.44-5.61-2.92-11.59-6-16.8-9.36-2.13-1.38-6.64-2.24-7-5.28A5.89,5.89,0,0,0,52.32,55.2Z" fill-rule="evenodd"/>
  </g>
  <g class="g_to_interact_with" id="lowerfartstribe" style="isolation: isolate">
    <path d="M23.52,29h1a55.06,55.06,0,0,0,3.6,7.44c.33.51,1.13.92,1.44,1.44.72,1.22.56,2.61,1.44,3.6,1.66,1.88,3.9,3.1,5.76,4.8.56.51.87,1.41,1.44,1.92,1.3,1.16,3,1.74,4.32,2.88,2.14,1.86,4.63,4.46,7.2,5.76l2.4.48c1.15.64,2.11,2.2,3.36,2.88,8.38,4.55,16.86,9.18,25.44,13.44,2.58,1.28,4.8,1.68,7.44,2.88C89.22,77,90.1,78,91,78.48c6.17,3.34,11.75,6.25,16.8,10.56.46.39,1.23.32,1.68.72.82.73,1.38,1.86,2.16,2.64,2.89,2.9,6,5.7,8.16,9.36,1.68,2.9,2.83,6.16,4.32,9.12.79,1.57,3.29,7.31,1.44,8.88-.79.58-1.94.48-2.88,1-2.18,1.12-5.47,3-6.72,5a3.93,3.93,0,0,0-1.2-.24c-3-4.35-8.42-6-14.4-7.44C95.77,117,90,119.2,86.4,117.36c-.45-.23-.81-1.11-1.2-1.44-.75-.63-1.58-.62-2.16-1.44-1.23-1.68-1.21-5.62-2.16-7.68-3-6.46-4.68-14.18-9.12-19.2C65.39,80.39,57,74.89,49,69.36a49.29,49.29,0,0,1-4.08-3.84c-1.47-1.3-3.35-2-4.8-3.36A150.06,150.06,0,0,1,28.8,50.88c-3.46-3.91-7.91-9.63-6-18C23.15,31.34,23,30.13,23.52,29Z" fill-rule="evenodd"/>
  </g>
  <g class="g_to_interact_with" id="backprik" style="isolation: isolate">
    <path d="M22.56,42.72,24,43a43.35,43.35,0,0,0,10.8,14.4c.7.63,1.71.81,2.4,1.44,1.07,1,1.81,2.4,2.88,3.36.7.63,1.69.82,2.4,1.44,1.78,1.54,3.5,3.26,5.28,4.8,1.2,1,2.75,1.49,4.08,2.4.47.32.78,1.07,1.2,1.44,1.82,1.58,4,2.77,5.76,4.32,3.05,2.64,6.64,4.5,9.6,7.2,7.8,7.12,11.87,20.42,14.88,31.44H83c-.69-1-1.94-1.25-2.64-2.16-4.16-5.41-10.34-8.66-16.08-12.48S53.1,92.71,47,89c-.92-.56-1.66-1.84-2.64-2.4C43,85.84,42,85,40.8,84.24c-.7-.44-1.56-.43-2.16-1s-1-1.47-1.68-1.92c-1.18-.75-2.65-.72-3.84-1.44l-1.92-2.4c-.69-.48-1.76-.46-2.16-1.2-1-1.9-1.13-3.65-1.92-5.76A117.77,117.77,0,0,1,23,57.6C22,53.45,22.57,47.55,22.56,42.72Z" fill-rule="evenodd"/>
  </g>
  <g class="g_to_interact_with" id="hæl" style="isolation: isolate">
    <path d="M22.32,36.48h1c.11,2.3.24,5.58.24,8.4v4.56A7.63,7.63,0,0,1,24,51.6c.07,3.56-1.43,4.89-.48,8.4A123.58,123.58,0,0,0,27.6,73c.75,1.91,2.84,3.63,3.12,5.76C26.06,78.44,17.44,74.5,17,70.56c-1-1.49.9-7.71,1.2-9.36C19.85,52.34,22.27,45.45,22.32,36.48Z" fill-rule="evenodd"/>
    <path d="M34.32,0H37.2c1,1.45,3.11,2.12,3.36,4.32.19.25.09.07.24.48-3.65.32-3.61,2.65-5.52,4.56-5.37,5.35-8.81,10.39-10.56,19.44a6.38,6.38,0,0,1-1.2.48V25c.87-1.31.64-3.77,1.2-5.28.38-1,1.33-2,1.68-2.88,1.68-4.37,2.1-8.76,3.84-13C31,2,33.22,1.45,34.32,0Z" fill-rule="evenodd"/>
  </g>
  <g class="g_to_interact_with" id="and" style="isolation: isolate">
    <path d="M92.64,49.44c-4.17-.17-7.42-3.21-12.48-1.92-4.21,1.07-8.7,3.41-12.48,5l-2.88.24c-2.54.75-5.83,2.17-8.64,2.88H52.32c-1.14.34-1.21,1.08-2.88,1.2-.84-1.22-2.13-1.55-3.36-2.4-2.19-1.51-4.4-3.6-6.72-5.28-1-.75-1.7-2-2.64-2.88-.7-.63-1.71-.81-2.4-1.44-.91-.83-1.53-2-2.4-2.88-.71-.71-1.72-1.18-2.4-1.92s-.82-1.68-1.44-2.4C26.63,36,24,33.92,23.76,31.2A10.25,10.25,0,0,0,25,24.48c.89-2.46,1.59-5,2.64-7.44,1.3-3,4.59-4.5,6.24-7.2l.72.24v3.36c-1.16,1.61-1,8.39-1,11.28,0,8,3.23,13.6,8.64,16.32,1.48.74,4.43,1.89,7.2,1.2C55.13,40.82,59.93,38,64.32,35c2.43-1.62,5-4.37,8.64-4.56.71.67,1.9.79,2.64,1.44.23.2.26.74.48,1,1.53,1.51,3.28,2.8,4.8,4.32.71.71,1.18,1.74,1.92,2.4s1.71.81,2.4,1.44,1.2,1.7,1.92,2.4,2,1.15,2.88,1.92,1.68,2.19,2.64,3.12Z" fill-rule="evenodd"/>
    <path d="M35,9.12c-.2.78.12.37-.48.72V9.6c-.19-.25-.09-.07-.24-.48Z" fill-rule="evenodd"/>
  </g>
  <g class="g_to_interact_with" id="snørrebåndsholder" style="isolation: isolate">
    <path d="M167.52,59c2.22.6,3.07,2.75,4.56,4.08,1,.93,2.42,1.38,3.36,2.4.63.69.81,1.69,1.44,2.4,1,1.08,2.19,1.19,2.4,3.12l-.72.24c-.28.19-.4.19-1,.24-.75-.71-1.88-1-2.64-1.68a49.79,49.79,0,0,1-6.24-7.44c-.53-.71-1.4-1.14-1.92-1.92C167.09,60.05,167.13,59.69,167.52,59Z" fill-rule="evenodd"/>
    <path d="M129.84,31.92c1.31.34,2.55.15,4.32,1,.85.39,1.27,1.34,1.92,1.92s1.4.5,2.16,1c1.09.66,2.11,2.07,3.12,2.88s2.69,1.2,2.88,3.12a3.41,3.41,0,0,1-2.16,1c-.78-.8-1.88-1.34-2.64-2.16-.33-.35-.33-.91-.72-1.2-1.12-.83-2.58-1.22-3.6-2.16s-1.63-2.45-2.88-3.12-2-.2-2.88-.72C129,32.63,129.46,32.52,129.84,31.92Z" fill-rule="evenodd"/>
    <path d="M73.92,29.28,76.08,29c2.17-.89,11.81-4.34,13.2-.24.74,2.2-1.91,4-1.2,5.76.13,1,.39,1.38,1.2,1.68,2.39,1.56,8.37-1.49,10.56-1.44,1.11,1.61,4.21,3.11,5.76,4.56V40.8c-1.37,1.34-2.46,3-3.84,4.32A8.35,8.35,0,0,0,102,47l.72.24c1.16.71,2.16-.29,2.88-.72a21.33,21.33,0,0,0,3.6-2.16c1.22-1.11.89-2.37,3.12-2.64,1.83,1.85,6.93,5.26,7.2,8.16a18.38,18.38,0,0,0-2.64,2.88c-.45.7-.43,1.56-1,2.16s-1.52,1-1.92,1.68a1.41,1.41,0,0,0,.72,2.16,3.59,3.59,0,0,0,2.4,0c1.32-.35,2.42-.28,3.36-1,1.38-1,2.47-5.17,4.8-4.32.25.08,5.48,4,5.52,4.08.19.28.19.4.24,1-2.08,2-4.31,6.76-3.6,10.56l.72.24c1.23.79,3-.18,3.84-.48A26.82,26.82,0,0,0,136.56,67c1.76-1,2.34-2.7,5-2.88L143,65.76c-.1,4.23-3.4,4.88-4.32,8.16-.66,2.33.64,4.52,1.92,5,1.12.71,3.44,0,4.32-.24,4-1.26,4.35-6.73,8.64-7,2.18,1.5,6.87,2.86,7.2,6-2,2-3.73,4.29-5.76,6.24a23.17,23.17,0,0,0,.24,4.32,2.66,2.66,0,0,1,.72.48c1.22-.23,3.83,0,5.28-.48,2.74-.82,5-3.13,7.2-4.56s5.09-2.11,7.68-3.12c2.11-.82,6.29-4.22,9.6-3.36,2.07.54,3.08,2.06,4.56,3.12,2.82,2,5.49,3.63,7.92,6v.48c-5.27-.1-7.73,1.86-11,3.6-5.92,3.11-11.19,7-18.24,8.88-2.62.68-11.16-1.49-13-2.16-8.8-3.29-15-8.08-22.08-13-2.82-1.93-5.3-5.17-8.4-6.72-2.86-1.43-9.28,1.81-12.24,0-2-.67-3.18-2.94-4.56-4.32-1.78-1.78-3.89-3.09-5.76-4.8-1.57-1.44-2.81-3.29-4.32-4.8s-4-2.64-4.32-5c-1.62-2.59,1.79-5.46.48-7.68-.93-2.75-5.15-5.09-7.2-7-.9-.82-1.49-2.07-2.4-2.88-.7-.63-1.71-.81-2.4-1.44-3.15-2.89-5.81-6.38-8.88-9.36Z" fill-rule="evenodd"/>
  </g>
  <g class="g_to_interact_with" id="flap" style="isolation: isolate">
    <path d="M155.52,70.56c0-.56,0-.68.24-1,.93-2.75,5.07-4.16,7.44-5.52.43.89,1,.74,1.2,1.92C162.21,68.18,159.86,70.56,155.52,70.56Z" fill-rule="evenodd"/>
    <path d="M162.24,64.08h.48v.24C162.3,64.17,162.49,64.27,162.24,64.08Z" fill-rule="evenodd"/>
    <path d="M153.12,61a8.35,8.35,0,0,1-.24,1.92c-3,1.43-5.53,3.94-9.84,3.12a6.38,6.38,0,0,1-.48-1.2C147,64.53,148.59,61.17,153.12,61Z" fill-rule="evenodd"/>
    <path d="M149.76,55.2V53.76c.42-.15.23,0,.48-.24.42.15.23,0,.48.24,1,.24,1.18.47,1.44,1.44Z" fill-rule="evenodd"/>
    <path d="M110.4,31.68c.59.31.16-.1.48.48h-.24c-.46,1.45-1.7,1.93-2.64,2.88l-1.44-.24c-.56-.82-1-.83-1.2-2.16l.72-.24C107.16,31.75,109.43,32.36,110.4,31.68Z" fill-rule="evenodd"/>
    <path d="M123.84,31.2l2.4.72c.21.14,4.76,5.41,4.8,5.52.5,1.45.07,3.25.48,4.32,2,1.09,4.5,2.23,6,3.84.79.84,1.06,2.11-.24,2.64-.58.38-1.92.24-2.88.24h-4.32c-1.61-.56-2.69-2.52-4.32-3.12-1.9-.7-3.26,1-4.8,1-3.92-.1-4.84-2-7.44-3.84-.68-.49-1.71-.47-2.16-1.2,1.3-1.72,2-3.61,3.6-5a36.92,36.92,0,0,1,6.48-4.32C122.18,31.56,123.21,31.64,123.84,31.2Z" fill-rule="evenodd"/>
    <path d="M91.2,13.92a17.66,17.66,0,0,1,4.32.48c3.33.81,7.31-.58,10.08.48,2.55,1,3.77,3.26,5.52,5,1.24,1.27,3.2,2.24,3.84,4.08a4.78,4.78,0,0,0-.48,1c-1.77.77-4.62-.09-7,.48-1.63.39-4.57,0-6.72.48-1.11.27-4.1,1.1-5.28,1-1.64-.19-4.19-1.61-5.76-2.16-3.24-1.14-8.34-.66-11.28,0l.24-2.4c1.21-.76,2.2-2.18,3.36-2.88C85.27,17.53,88.34,16.13,91.2,13.92Z" fill-rule="evenodd"/>
  </g>
  <g class="g_to_interact_with" id="snørrebånd" style="isolation: isolate">
    <path d="M162.24,60c.16,1.22,1.12,2,.72,2.88-.68,2.1-4.36,5.29-6,6.72v.48h3.84c1.11-1.09,4.87-4.26,6.72-4.32.77.82,1.85,1.36,2.64,2.16,1.81,1.84,2,3.57,5.76,3.6a3.16,3.16,0,0,0,.48-1.92c-2.4-2.14-3.51-3.8-4.32-7.68a34.8,34.8,0,0,0-5.52-2.4C164.87,59.1,163.63,59.89,162.24,60Z" fill-rule="evenodd"/>
    <path d="M150.24,51.84l.24,2.16a3.68,3.68,0,0,0,2.64.72c1.31-.67,4.95.3,5.28-2.16-.42-.15-.23-.05-.48-.24A22.43,22.43,0,0,1,150.24,51.84Z" fill-rule="evenodd"/>
    <path d="M154.08,60.48c-3.41.24-6.19,2.41-8.64,3.6-1.7.83-4.77-.22-6.24.72-3.12,2-6.18,5.53-11.52,4.56l-.24-.72c-.25-.4.57-5.7,1-6.72s2.31-2.22,1.92-3.36c-.74-2.26-3.5-3.71-5-5.28-.42.15-.23,0-.48.24C122,54.34,122,58,119,58.32c-1.08.81-3.3.8-4.8.48a3.68,3.68,0,0,1-.48-1.68,34.33,34.33,0,0,0,5-7c.51-1,.36-2.87.72-3.84a4,4,0,0,0,1-.72c1.84,0,4.84-.44,6.24.24,2.68,1.3,3,4,7.2,4.08.72-.5,1.46-.34,2.4-.72a6.6,6.6,0,0,0,1.92-1.68c-.15-.42-.05-.23-.24-.48-.83-2.47-3.73-3.26-5.28-5-.79-.9-.92-3.25-1.2-4.56h2.88c1.29,1.41,2.57,2.89,3.84,4.32.9,0,8.22-.81,9.12-.24,1.08.34,1.23,1,1.92,1.68v.48c-1,.22-1.36.74-1.44,1.92h.24v.24c3.31.26,1.53.7,3.84,1.92l2.64.48a29.72,29.72,0,0,1,5.28,2.4c1.15.7,1.32,2.62,2.4,3.36.61.42,1.16.14,1.92.48,1.37.61,2.87,1.82,4.32,2.4,2.11.84,4.37.83,6.24,1.92,1.14.67,1.94,2.21,2.88,3.12v2.4c-.31.91-1.55,1.42-1.2,2.4a8.38,8.38,0,0,0,3.6,3.84l1.92.24c.65.33,1.16,1.4,1.68,1.92,1.11,1.1,2.47,2.06,3.6,3.12v1.92h-.48c-2.33-1.7-7.46,1.33-9.12,2.16-2.84,1.43-6,1.91-8.64,3.6-3.77,2.42-7.36,6.1-13.92,5a3.41,3.41,0,0,1-1-2.16c1.63-1.9,2.86-4.14,4.56-6,.79-.86,1.88-1.24,2.4-2.4-1.08-.47-1.57-1.76-2.64-2.16-1.61-.59-2.63-.34-3.84-1.2s-.34-2.57-2.4-2.88c-.92,1.19-2.7,1.43-3.84,2.4-1.85,1.59-.56,4.38-4.32,4.8-.82.56-3,.19-3.84,0-1.18-1.81-1.44-3.1-1.2-6,1.91-1.26,3.1-3.55,4.8-5,.71-.62,1.77-.46,2.64-1,1.61-.93,5.15-2.17,6.48-3.36.48-.44.73-1.22,1.2-1.68Z" fill-rule="evenodd"/>
    <path d="M138.72,33.6c-2.88-.34-3.67-1.4-5.76-1.92h-4.08c-7,0-7.19.4-11.28,3.12A22.24,22.24,0,0,0,115,36.24c-3.42,3-5.23,10.35-10.8,11-.59.4-1.26.15-1.92,0l-.24-.72a2.65,2.65,0,0,1-.24-1.44c3.42-3.33,7.17-7.82,8.64-13h-8.64c-1.42,1.19-3.28,1.24-5,2.16-1.23.65-1.88,1.74-3.6,2.16a8,8,0,0,1-3.84-.24c-.92-.28-1.11-.53-1.2-1.68-.33-.69.35-2.19.48-3.36,2-1.3,3.1-4,5.52-4.8h5.76c4.12-1,9.83-.45,13.92-1.44,1.36-.33,3.32.38,4.32-.24,2-.74,3.7-4.83,5.28-5.76.58.35,1.39.06,2.4,0,1.1,1.79,1.9,4.9,3.12,6.48.63.82,2.24,1.08,3.12,1.68s1.57,1.62,2.4,2.16l2.16.72c.84.51,1.44,1.95,2.16,2.64Z" fill-rule="evenodd"/>
  </g>
  <g class="g_to_interact_with" id="for" style="isolation: isolate">
    <path d="M162.24,60c1.45-.12,3.86-1.14,4.8-.72,1.71.51,4.69,2.95,5.28,4.56.45,1.22.11,1.77.72,2.64.85,1.21,3.23,2.63,3.6,4.08s-.68,1.64-1.92,1.68c-1.12-1.61-3.75-2.45-4.56-3.6s-.78-2.07-1.92-2.64c-2.38-1.2-5.12,1.46-5.28-3.12C163.32,62.08,162.4,61.25,162.24,60Z" fill-rule="evenodd"/>
    <path d="M158.4,52.56h1.44a2.66,2.66,0,0,0,.48.72c-.15.42,0,.23-.24.48-.24.66-.35.53-.72,1-2.59-.54-6,.12-8.16-.24a2.57,2.57,0,0,1-.48-1.44h.48C152.86,52,156.75,53.58,158.4,52.56Z" fill-rule="evenodd"/>
    <path d="M146.4,45.84l1.2.24v1l-.72.24c-.59.4-1.26.15-1.92,0V47c.19-.25.09-.07.24-.48A4.21,4.21,0,0,0,146.4,45.84Z" fill-rule="evenodd"/>
    <path d="M101.76,32.16c1.39.26,6.12,2.8,6.48,3.84.19.28.19.4.24,1-.93,1-1.13,2.22-2.88,2.4-1.38-1.4-6.62-3.82-7-5.52C99.51,33.31,100.87,32.82,101.76,32.16Z" fill-rule="evenodd"/>
    <path d="M125.28,31.2c2.4.16,6,.52,8.64.72,1,1.75,2.29,2,3.84,3.12,1,.73,1.53,2,2.4,2.88a23.17,23.17,0,0,1-.24,4.32,2.66,2.66,0,0,0-.72.48c-.42-.15-.23,0-.48-.24-1.63-.57-2-2.33-3.12-3.36s-2.23-1-4.08-1.68C130.21,37,125.69,32.67,125.28,31.2Z" fill-rule="evenodd"/>
    <path d="M116.16,14.4l2.4.24c.68,1,1.79,1.55,2.64,2.4.64.64,1,1.53,1.68,2.16-.15.42,0,.23-.24.48-.65,2-3.18,3.84-4.56,5.28-3.76,0-3.62-2.39-5.52-4.08-1-.93-2.28-1.37-3.36-2.4.15-.42,0-.23.24-.48C110.52,16.14,114.38,15.66,116.16,14.4Z" fill-rule="evenodd"/>
    <path d="M41.28,4.32c6.83-.16,10,3.14,13.92,5.76,4.86,3.22,9.59,6.15,14.4,9.36,2.28,1.52,5.75,5.2,9.12,5.28,2.41-2.23,11.64-1.43,12.72,1.2.44.64.16,1.71,0,2.4a5,5,0,0,1-1.68.24c-3.51-3.19-10-1-13.44.48C74.1,30,72,30,70.08,31.2c-4.7,3-9.28,6-14.4,8.64-2.33,1.2-6.36,3.43-10.56,2.4-8.67-2.13-13.87-12.83-11-24.48V13.44A27.93,27.93,0,0,1,36.24,7.2C37.2,5.4,39.64,5.48,41.28,4.32Z" fill-rule="evenodd"/>
  </g>
  <g id="shadow_Image" data-name="shadow Image">
    <image id="shadow_Image-2" data-name="shadow Image" width="1040" height="728" transform="scale(0.24)" xlink:href="puma_sho1.png"/>
  </g>
</svg>
